<svg xmlns="http://www.w3.org/2000/svg" width="184.33509826660156" height="206.58059692382812" viewBox="-12.22265625 -12.77734375 184.33509826660156 206.58059692382812"><title>Neo4j Graph Visualization</title><desc>Created using Neo4j (http://www.neo4j.com/)</desc><g class="layer relationships"><g class="relationship" transform="translate(69.89888292166737 164.80323949090416) rotate(252.94883756212914)"><path class="outline" fill="#A5ABB6" stroke="none" d="M 5.987513214418485,24.277555179777966 L 6.953439040707552,24.018736134675446 A 45.87393132839213 45.87393132839213 0 0 0 33.99643963609847,54.64557327298411 L 33.62002074353613,55.572022849227814 A 46.87393132839213 46.87393132839213 0 0 1 5.987513214418485,24.277555179777966 Z M 63.35934935730077,57.4322666034529 L 63.10131477495794,56.46613092234224 A 45.87393132839213 45.87393132839213 0 0 0 93.75010200991963,29.448009682610383 L 90.97167120736412,28.316496414720525 L 96.85337143542189,23.15359002129585 L 97.45467641332698,30.956694039796858 L 94.67624561077147,29.825180771907 A 46.87393132839213 46.87393132839213 0 0 1 63.35934935730077,57.4322666034529"/><text text-anchor="middle" pointer-events="none" font-size="8px" fill="#000000" x="48.36914696662972" y="61.4291619121929" transform="rotate(180 48.36914696662972 58.4291619121929)" font-family="sans-serif">CONN</text></g><g class="relationship" transform="translate(38.7340976546045 63.192425267668995) rotate(349.13406267392224)"><path class="outline" fill="#A5ABB6" stroke="none" d="M 5.987513214418485,-24.277555179777966 L 6.953439040707552,-24.018736134675446 A 45.874611998254764 45.874611998254764 0 0 1 33.99707378571286,-54.64612233204478 L 33.62065996981495,-55.57257397093436 A 46.874611998254764 46.874611998254764 0 0 0 5.987513214418485,-24.277555179777966 Z M 63.36000061947111,-57.43279662071292 L 63.10196991664397,-56.4666599034733 A 45.874611998254764 45.874611998254764 0 0 1 93.75141521889,-29.448028032694047 L 90.97298275957932,-28.316518832975007 L 96.85467542811955,-23.153603827588977 L 97.45599183130425,-30.95670696565277 L 94.67755937199357,-29.82519776593373 A 46.874611998254764 46.874611998254764 0 0 0 63.36000061947111,-57.43279662071292"/><text text-anchor="middle" pointer-events="none" font-size="8px" fill="#000000" x="48.3697958338211" y="-55.42966720351765" font-family="sans-serif">CONN</text></g><g class="relationship" transform="translate(69.89888292166737 164.80323949090416) rotate(252.94883756212914)"><path class="outline" fill="#A5ABB6" stroke="none" d="M 17.324116139070416,18.031222920256962 L 18.031222920256962,17.324116139070416 A 46.99860336254969 46.99860336254969 0 0 0 34.69604418212628,28.072480372403447 L 34.343518602711114,29.00828255014082 A 47.99860336254969 47.99860336254969 0 0 1 17.324116139070416,18.031222920256962 Z M 64.1284556118228,30.333687033687625 L 63.86044361467275,29.370271459086695 A 46.99860336254969 46.99860336254969 0 0 0 81.41409254841325,20.14460018305285 L 79.48957758453508,17.843243593167436 L 87.10467708545892,16.0376246989847 L 83.98011250025081,23.213075636233405 L 82.05559753637264,20.91171904634799 A 47.99860336254969 47.99860336254969 0 0 1 64.1284556118228,30.333687033687625"/><text text-anchor="middle" pointer-events="none" font-size="8px" fill="#000000" x="49.15269601574325" y="34.54273031960009" transform="rotate(180 49.15269601574325 31.54273031960009)" font-family="sans-serif">CONN</text></g><g class="relationship" transform="translate(69.89888292166737 164.80323949090416) rotate(252.94883756212914)"><path class="outline" fill="#A5ABB6" stroke="none" d="M 24.018736134675446,6.953439040707552 L 24.277555179777966,5.987513214418485 A 104.26859767504773 104.26859767504773 0 0 0 34.73492063000008,8.221874599670045 L 34.57639415316258,9.209229326271114 A 105.26859767504773 105.26859767504773 0 0 1 24.018736134675446,6.953439040707552 Z M 64.61283381898694,9.69061671623983 L 64.486028864332,8.698689045754236 A 104.26859767504773 104.26859767504773 0 0 0 75.00962442777139,6.800584892510577 L 74.32642629641565,3.8794138408068215 L 81.9395565703061,5.693317761297814 L 75.92055526957903,10.695479628115585 L 75.23735713822329,7.774308576411829 A 105.26859767504773 105.26859767504773 0 0 1 64.61283381898694,9.69061671623983"/><text text-anchor="middle" pointer-events="none" font-size="8px" fill="#000000" x="49.58536647372734" y="13.026926807541443" transform="rotate(180 49.58536647372734 10.026926807541443)" font-family="sans-serif">CONN</text></g><g class="relationship" transform="translate(38.7340976546045 63.192425267668995) rotate(432.94883756212914)"><path class="outline" fill="#A5ABB6" stroke="none" d="M 24.018736134675446,6.953439040707552 L 24.277555179777966,5.987513214418485 A 104.26859767504773 104.26859767504773 0 0 0 34.73492063000008,8.221874599670045 L 34.57639415316258,9.209229326271114 A 105.26859767504773 105.26859767504773 0 0 1 24.018736134675446,6.953439040707552 Z M 64.61283381898694,9.69061671623983 L 64.486028864332,8.698689045754236 A 104.26859767504773 104.26859767504773 0 0 0 75.00962442777139,6.800584892510577 L 74.32642629641565,3.8794138408068215 L 81.9395565703061,5.693317761297814 L 75.92055526957903,10.695479628115585 L 75.23735713822329,7.774308576411829 A 105.26859767504773 105.26859767504773 0 0 1 64.61283381898694,9.69061671623983"/><text text-anchor="middle" pointer-events="none" font-size="8px" fill="#000000" x="49.58536647372734" y="13.026926807541443" font-family="sans-serif">CONN</text></g><g class="relationship" transform="translate(38.7340976546045 63.192425267668995) rotate(349.13406267392224)"><path class="outline" fill="#A5ABB6" stroke="none" d="M 10.396609043987748,-22.74116356711926 L 11.29757791189017,-22.307279828001697 A 44.360393630438615 44.360393630438615 0 0 1 34.31769232839784,-44.055590570138165 L 33.93565741334277,-44.979738460726495 A 45.360393630438615 45.360393630438615 0 0 0 10.396609043987748,-22.74116356711926 Z M 63.658509646208444,-46.694462729242915 L 63.385284545774574,-45.732512603460435 A 44.360393630438615 44.360393630438615 0 0 1 88.75369195382929,-26.775756724234007 L 86.21840468437907,-25.17191182482395 L 92.91854459736112,-21.127393912085168 L 92.13407497976291,-28.91421659011408 L 89.59878771031269,-27.310371690704024 A 45.360393630438615 45.360393630438615 0 0 0 63.658509646208444,-46.694462729242915"/><text text-anchor="middle" pointer-events="none" font-size="8px" fill="#000000" x="48.68119190603344" y="-44.84595395453704" font-family="sans-serif">CONN</text></g><g class="relationship" transform="translate(38.7340976546045 63.192425267668995) rotate(349.13406267392224)"><path class="outline" fill="#A5ABB6" stroke="none" d="M 14.44320574945421,-20.411854586953456 L 15.247803529220876,-19.818034401379958 A 44.764115583361594 44.764115583361594 0 0 1 34.563689024163466,-34.768056755646406 L 34.19059503360876,-35.69585030715016 A 45.764115583361594 45.764115583361594 0 0 0 14.44320574945421,-20.411854586953456 Z M 63.93121856754565,-37.21254422732246 L 63.654444792607045,-36.25160912154984 A 44.764115583361594 44.764115583361594 0 0 1 84.39098859933597,-23.344155778678072 L 82.17094627569159,-21.326381737506054 L 89.46913508267806,-18.500352697036522 L 87.3510450308618,-26.03452116690743 L 85.13100270721742,-24.016747125735414 A 45.764115583361594 45.764115583361594 0 0 0 63.93121856754565,-37.21254422732246"/><text text-anchor="middle" pointer-events="none" font-size="8px" fill="#000000" x="48.95955603695935" y="-35.441569185555416" font-family="sans-serif">CONN</text></g><g class="relationship" transform="translate(38.7340976546045 63.192425267668995) rotate(432.94883756212914)"><path class="outline" fill="#A5ABB6" stroke="none" d="M 17.324116139070416,18.031222920256962 L 18.031222920256962,17.324116139070416 A 46.99860336254969 46.99860336254969 0 0 0 34.69604418212628,28.072480372403447 L 34.343518602711114,29.00828255014082 A 47.99860336254969 47.99860336254969 0 0 1 17.324116139070416,18.031222920256962 Z M 64.1284556118228,30.333687033687625 L 63.86044361467275,29.370271459086695 A 46.99860336254969 46.99860336254969 0 0 0 81.41409254841325,20.14460018305285 L 79.48957758453508,17.843243593167436 L 87.10467708545892,16.0376246989847 L 83.98011250025081,23.213075636233405 L 82.05559753637264,20.91171904634799 A 47.99860336254969 47.99860336254969 0 0 1 64.1284556118228,30.333687033687625"/><text text-anchor="middle" pointer-events="none" font-size="8px" fill="#000000" x="49.15269601574325" y="34.54273031960009" font-family="sans-serif">CONN</text></g><g class="relationship" transform="translate(38.7340976546045 63.192425267668995) rotate(349.13406267392224)"><path class="outline" fill="#A5ABB6" stroke="none" d="M 17.9862104268602,-17.370844380187897 L 18.666383164631117,-16.637792508358068 A 47.92683764864463 47.92683764864463 0 0 1 34.720493495332505,-26.485641418185153 L 34.375291957797984,-27.424169999787118 A 48.92683764864463 48.92683764864463 0 0 0 17.9862104268602,-17.370844380187897 Z M 64.17549466106956,-28.697648788698054 L 63.91161937828568,-27.733091981073052 A 47.92683764864463 47.92683764864463 0 0 1 80.74734068017708,-19.290753744177078 L 78.90187597277225,-16.92553493533017 L 86.57376201872067,-15.37887256170695 L 83.20796029005018,-22.44437882263962 L 81.36249558264535,-20.079160013792713 A 48.92683764864463 48.92683764864463 0 0 0 64.17549466106956,-28.697648788698054"/><text text-anchor="middle" pointer-events="none" font-size="8px" fill="#000000" x="49.197331087236414" y="-26.88761437370949" font-family="sans-serif">CONN</text></g><g class="relationship" transform="translate(38.7340976546045 63.192425267668995) rotate(349.13406267392224)"><path class="outline" fill="#A5ABB6" stroke="none" d="M 20.90208894244944,-13.724164012497553 L 21.434121018964774,-12.87743981326927 A 56.06953384696425 56.06953384696425 0 0 1 34.78429575366563,-18.994750049968673 L 34.490364011123795,-19.950576462413068 A 57.06953384696425 57.06953384696425 0 0 0 20.90208894244944,-13.724164012497553 Z M 64.3856507825513,-20.942785535027745 L 64.15574283767613,-19.969573154874638 A 56.06953384696425 56.06953384696425 0 0 1 77.88215229801222,-14.750920713269794 L 76.45799702521207,-12.11050753367923 L 84.28047559585688,-11.867960606667882 L 79.78102599507908,-18.271471619390546 L 78.35687072227893,-15.63105843979998 A 57.06953384696425 57.06953384696425 0 0 0 64.3856507825513,-20.942785535027745"/><text text-anchor="middle" pointer-events="none" font-size="8px" fill="#000000" x="49.388431259736485" y="-18.940411379304564" font-family="sans-serif">CONN</text></g><g class="relationship" transform="translate(38.7340976546045 63.192425267668995) rotate(349.13406267392224)"><path class="outline" fill="#A5ABB6" stroke="none" d="M 23.08917320392191,-9.598962483481976 L 23.454514228288303,-8.668088734837774 A 76.1217477855243 76.1217477855243 0 0 1 34.7691814614857,-12.121280741247276 L 34.55247952597834,-13.097518556099459 A 77.1217477855243 77.1217477855243 0 0 0 23.08917320392191,-9.598962483481976 Z M 64.54803379080238,-13.777573714336754 L 64.37579803848345,-12.792517956715315 A 76.1217477855243 76.1217477855243 0 0 1 75.83533962798658,-9.85565973923712 L 74.86700552628929,-7.016235666033173 L 82.622051482412,-8.069450847477432 L 77.12645176358296,-13.641558503509053 L 76.15811766188567,-10.802134430305104 A 77.1217477855243 77.1217477855243 0 0 0 64.54803379080238,-13.777573714336754"/><text text-anchor="middle" pointer-events="none" font-size="8px" fill="#000000" x="49.52819990475908" y="-11.410415089212606" font-family="sans-serif">CONN</text></g><g class="relationship" transform="translate(38.7340976546045 63.192425267668995) rotate(349.13406267392224)"><path class="outline" fill="#A5ABB6" stroke="none" d="M 24.471206027250748,-5.139073415689509 L 24.657117634413662,-4.15650694245622 A 143.12067069100203 143.12067069100203 0 0 1 34.70844393310616,-5.690737894135509 L 34.592762057610685,-6.684024209193694 A 144.12067069100203 144.12067069100203 0 0 0 24.471206027250748,-5.139073415689509 Z M 64.64051647392957,-7.029578584918198 L 64.54770810113345,-6.033894595924238 A 143.12067069100203 143.12067069100203 0 0 1 74.6316592721395,-4.731222819672125 L 74.14186109794474,-1.7714765892402862 L 81.61936683884625,-4.081651451622994 L 75.28472350439918,-8.677551126914576 L 74.79492533020442,-5.717804896482738 A 144.12067069100203 144.12067069100203 0 0 0 64.64051647392957,-7.029578584918198"/><text text-anchor="middle" pointer-events="none" font-size="8px" fill="#000000" x="49.6133581821239" y="-4.14210872506888" font-family="sans-serif">CONN</text></g><g class="relationship" transform="translate(38.7340976546045 63.192425267668995) rotate(349.13406267392224)"><path class="outline" fill="#A5ABB6" stroke="none" d="M 25 0.5 L 34.64195937955579 0.5 L 34.64195937955579 -0.5 L 25 -0.5 Z M 64.6419593795558 0.5 L 74.28391875911159 0.5 L 74.28391875911159 3.5 L 81.28391875911159 0 L 74.28391875911159 -3.5 L 74.28391875911159 -0.5 L 64.6419593795558 -0.5 Z"/><text text-anchor="middle" pointer-events="none" font-size="8px" fill="#000000" x="49.64195937955579" y="3" font-family="sans-serif">CONN</text></g><g class="relationship" transform="translate(38.7340976546045 63.192425267668995) rotate(349.13406267392224)"><path class="outline" fill="#A5ABB6" stroke="none" d="M 24.471206027250748,5.139073415689509 L 24.657117634413662,4.15650694245622 A 143.12067069100203 143.12067069100203 0 0 0 34.7084439331062,5.690737894135509 L 34.59276205761073,6.684024209193694 A 144.12067069100203 144.12067069100203 0 0 1 24.471206027250748,5.139073415689509 Z M 64.64051647392964,7.029578584918198 L 64.54770810113352,6.033894595924238 A 143.12067069100203 143.12067069100203 0 0 0 74.6316592721395,4.731222819672125 L 74.14186109794474,1.7714765892402862 L 81.61936683884625,4.081651451622994 L 75.28472350439918,8.677551126914576 L 74.79492533020442,5.717804896482738 A 144.12067069100203 144.12067069100203 0 0 1 64.64051647392964,7.029578584918198"/><text text-anchor="middle" pointer-events="none" font-size="8px" fill="#000000" x="49.61335818212396" y="10.14210872506888" font-family="sans-serif">CONN</text></g><g class="relationship" transform="translate(38.7340976546045 63.192425267668995) rotate(432.94883756212914)"><path class="outline" fill="#A5ABB6" stroke="none" d="M 5.987513214418485,24.277555179777966 L 6.953439040707552,24.018736134675446 A 45.87393132839213 45.87393132839213 0 0 0 33.99643963609847,54.64557327298411 L 33.62002074353613,55.572022849227814 A 46.87393132839213 46.87393132839213 0 0 1 5.987513214418485,24.277555179777966 Z M 63.35934935730077,57.4322666034529 L 63.10131477495794,56.46613092234224 A 45.87393132839213 45.87393132839213 0 0 0 93.75010200991963,29.448009682610383 L 90.97167120736412,28.316496414720525 L 96.85337143542189,23.15359002129585 L 97.45467641332698,30.956694039796858 L 94.67624561077147,29.825180771907 A 46.87393132839213 46.87393132839213 0 0 1 63.35934935730077,57.4322666034529"/><text text-anchor="middle" pointer-events="none" font-size="8px" fill="#000000" x="48.36914696662972" y="61.4291619121929" font-family="sans-serif">CONN</text></g><g class="relationship" transform="translate(38.7340976546045 63.192425267668995) rotate(349.13406267392224)"><path class="outline" fill="#A5ABB6" stroke="none" d="M 23.08917320392191,9.598962483481976 L 23.454514228288303,8.668088734837774 A 76.1217477855243 76.1217477855243 0 0 0 34.7691814614857,12.121280741247276 L 34.55247952597834,13.097518556099459 A 77.1217477855243 77.1217477855243 0 0 1 23.08917320392191,9.598962483481976 Z M 64.54803379080239,13.777573714336754 L 64.37579803848347,12.792517956715315 A 76.1217477855243 76.1217477855243 0 0 0 75.83533962798658,9.85565973923712 L 74.86700552628929,7.016235666033173 L 82.622051482412,8.069450847477432 L 77.12645176358296,13.641558503509053 L 76.15811766188567,10.802134430305104 A 77.1217477855243 77.1217477855243 0 0 1 64.54803379080239,13.777573714336754"/><text text-anchor="middle" pointer-events="none" font-size="8px" fill="#000000" x="49.52819990475909" y="17.410415089212606" font-family="sans-serif">CONN</text></g><g class="relationship" transform="translate(38.7340976546045 63.192425267668995) rotate(349.13406267392224)"><path class="outline" fill="#A5ABB6" stroke="none" d="M 20.90208894244944,13.724164012497553 L 21.434121018964774,12.87743981326927 A 56.06953384696425 56.06953384696425 0 0 0 34.784295753665624,18.994750049968673 L 34.49036401112379,19.950576462413068 A 57.06953384696425 57.06953384696425 0 0 1 20.90208894244944,13.724164012497553 Z M 64.38565078255128,20.942785535027745 L 64.15574283767612,19.969573154874638 A 56.06953384696425 56.06953384696425 0 0 0 77.88215229801222,14.750920713269794 L 76.45799702521207,12.11050753367923 L 84.28047559585688,11.867960606667882 L 79.78102599507908,18.271471619390546 L 78.35687072227893,15.63105843979998 A 57.06953384696425 57.06953384696425 0 0 1 64.38565078255128,20.942785535027745"/><text text-anchor="middle" pointer-events="none" font-size="8px" fill="#000000" x="49.38843125973647" y="24.940411379304564" font-family="sans-serif">CONN</text></g><g class="relationship" transform="translate(38.7340976546045 63.192425267668995) rotate(349.13406267392224)"><path class="outline" fill="#A5ABB6" stroke="none" d="M 17.9862104268602,17.370844380187897 L 18.666383164631117,16.637792508358068 A 47.92683764864463 47.92683764864463 0 0 0 34.720493495332505,26.485641418185153 L 34.375291957797984,27.424169999787118 A 48.92683764864463 48.92683764864463 0 0 1 17.9862104268602,17.370844380187897 Z M 64.17549466106958,28.697648788698054 L 63.91161937828569,27.733091981073052 A 47.92683764864463 47.92683764864463 0 0 0 80.74734068017708,19.290753744177078 L 78.90187597277225,16.92553493533017 L 86.57376201872067,15.37887256170695 L 83.20796029005018,22.44437882263962 L 81.36249558264535,20.079160013792713 A 48.92683764864463 48.92683764864463 0 0 1 64.17549466106958,28.697648788698054"/><text text-anchor="middle" pointer-events="none" font-size="8px" fill="#000000" x="49.19733108723642" y="32.88761437370949" font-family="sans-serif">CONN</text></g><g class="relationship" transform="translate(38.7340976546045 63.192425267668995) rotate(349.13406267392224)"><path class="outline" fill="#A5ABB6" stroke="none" d="M 14.44320574945421,20.411854586953456 L 15.247803529220876,19.818034401379958 A 44.764115583361594 44.764115583361594 0 0 0 34.56368902416346,34.7680567556464 L 34.190595033608744,35.69585030715016 A 45.764115583361594 45.764115583361594 0 0 1 14.44320574945421,20.411854586953456 Z M 63.931218567545656,37.21254422732246 L 63.65444479260705,36.25160912154984 A 44.764115583361594 44.764115583361594 0 0 0 84.39098859933597,23.344155778678072 L 82.17094627569159,21.326381737506054 L 89.46913508267806,18.500352697036522 L 87.3510450308618,26.03452116690743 L 85.13100270721742,24.016747125735414 A 45.764115583361594 45.764115583361594 0 0 1 63.931218567545656,37.21254422732246"/><text text-anchor="middle" pointer-events="none" font-size="8px" fill="#000000" x="48.95955603695934" y="41.441569185555416" font-family="sans-serif">CONN</text></g><g class="relationship" transform="translate(38.7340976546045 63.192425267668995) rotate(349.13406267392224)"><path class="outline" fill="#A5ABB6" stroke="none" d="M 10.396609043987748,22.74116356711926 L 11.29757791189017,22.307279828001697 A 44.360393630438615 44.360393630438615 0 0 0 34.317692328397854,44.055590570138165 L 33.93565741334278,44.979738460726495 A 45.360393630438615 45.360393630438615 0 0 1 10.396609043987748,22.74116356711926 Z M 63.65850964620846,46.6944627292429 L 63.38528454577459,45.732512603460435 A 44.360393630438615 44.360393630438615 0 0 0 88.75369195382929,26.775756724234007 L 86.21840468437907,25.17191182482395 L 92.91854459736112,21.127393912085168 L 92.13407497976291,28.91421659011408 L 89.59878771031269,27.310371690704024 A 45.360393630438615 45.360393630438615 0 0 1 63.65850964620846,46.6944627292429"/><text text-anchor="middle" pointer-events="none" font-size="8px" fill="#000000" x="48.68119190603346" y="50.84595395453704" font-family="sans-serif">CONN</text></g><g class="relationship" transform="translate(38.7340976546045 63.192425267668995) rotate(349.13406267392224)"><path class="outline" fill="#A5ABB6" stroke="none" d="M 5.987513214418485,24.277555179777966 L 6.953439040707552,24.018736134675446 A 45.874611998254764 45.874611998254764 0 0 0 33.99707378571286,54.64612233204478 L 33.62065996981495,55.57257397093436 A 46.874611998254764 46.874611998254764 0 0 1 5.987513214418485,24.277555179777966 Z M 63.36000061947111,57.43279662071292 L 63.10196991664397,56.4666599034733 A 45.874611998254764 45.874611998254764 0 0 0 93.75141521889,29.448028032694047 L 90.97298275957932,28.316518832975007 L 96.85467542811955,23.153603827588977 L 97.45599183130425,30.95670696565277 L 94.67755937199357,29.82519776593373 A 46.874611998254764 46.874611998254764 0 0 1 63.36000061947111,57.43279662071292"/><text text-anchor="middle" pointer-events="none" font-size="8px" fill="#000000" x="48.3697958338211" y="61.42966720351765" font-family="sans-serif">CONN</text></g></g><g class="layer nodes"><g class="node" transform="translate(69.89888292166737,164.80323949090416)"><circle class="outline" cx="0" cy="0" r="25" fill="#ECB5C9" stroke="#da7298" stroke-width="2px"/><text text-anchor="middle" pointer-events="none" font-family="sans-serif" dy="1.5625" font-size="25" fill="#2A2C34"/><text text-anchor="middle" pointer-events="none" x="0" y="5" font-size="10px" fill="#2A2C34" font-family="sans-serif"> MSN</text></g><g class="node" transform="translate(143.11244751714864,43.15667055850557)"><circle class="outline" cx="0" cy="0" r="25" fill="#ECB5C9" stroke="#da7298" stroke-width="2px"/><text text-anchor="middle" pointer-events="none" font-family="sans-serif" dy="1.5625" font-size="25" fill="#2A2C34"/><text text-anchor="middle" pointer-events="none" x="0" y="5" font-size="10px" fill="#2A2C34" font-family="sans-serif"> GRR</text></g><g class="node" transform="translate(38.7340976546045,63.192425267668995)"><circle class="outline" cx="0" cy="0" r="25" fill="#ECB5C9" stroke="#da7298" stroke-width="2px"/><text text-anchor="middle" pointer-events="none" font-family="sans-serif" dy="1.5625" font-size="25" fill="#2A2C34"/><text text-anchor="middle" pointer-events="none" x="0" y="5" font-size="10px" fill="#2A2C34" font-family="sans-serif"> ORD</text></g></g></svg>