<svg xmlns="http://www.w3.org/2000/svg" width="250.38937377929688" height="255.93798828125" viewBox="-28.065420150756836 -20.401275634765625 250.38937377929688 255.93798828125"><title>Neo4j Graph Visualization</title><desc>Created using Neo4j (http://www.neo4j.com/)</desc><g class="layer relationships"><g class="relationship" transform="translate(146.75124617432837 206.536708861223) rotate(235.6547978985929)"><path class="outline" fill="#A5ABB6" stroke="none" d="M 25 0.5 L 29.95454940952461 0.5 L 29.95454940952461 -0.5 L 25 -0.5 Z M 74.95454940952462 0.5 L 79.90909881904922 0.5 L 79.90909881904922 3.5 L 86.90909881904922 0 L 79.90909881904922 -3.5 L 79.90909881904922 -0.5 L 74.95454940952462 -0.5 Z"/><text text-anchor="middle" pointer-events="none" font-size="8px" fill="#000000" x="52.45454940952461" y="3" transform="rotate(180 52.45454940952461 0)" font-family="sans-serif">ACTED_IN</text></g><g class="relationship" transform="translate(193.32396400940266 92.63813840333151) rotate(528.9119078633855)"><path class="outline" fill="#A5ABB6" stroke="none" d="M 25 0.5 L 29.898132232888827 0.5 L 29.898132232888827 -0.5 L 25 -0.5 Z M 74.89813223288883 0.5 L 79.79626446577765 0.5 L 79.79626446577765 3.5 L 86.79626446577765 0 L 79.79626446577765 -3.5 L 79.79626446577765 -0.5 L 74.89813223288883 -0.5 Z"/><text text-anchor="middle" pointer-events="none" font-size="8px" fill="#000000" x="52.39813223288883" y="3" transform="rotate(180 52.39813223288883 0)" font-family="sans-serif">ACTED_IN</text></g><g class="relationship" transform="translate(120.45451510389744 8.598724368884112) rotate(469.24211755746205)"><path class="outline" fill="#A5ABB6" stroke="none" d="M 25 0.5 L 29.89238865740593 0.5 L 29.89238865740593 -0.5 L 25 -0.5 Z M 74.89238865740593 0.5 L 79.78477731481186 0.5 L 79.78477731481186 3.5 L 86.78477731481186 0 L 79.78477731481186 -3.5 L 79.78477731481186 -0.5 L 74.89238865740593 -0.5 Z"/><text text-anchor="middle" pointer-events="none" font-size="8px" fill="#000000" x="52.39238865740593" y="3" transform="rotate(180 52.39238865740593 0)" font-family="sans-serif">ACTED_IN</text></g><g class="relationship" transform="translate(1.072601575689248 38.606205484569344) rotate(402.46093322442874)"><path class="outline" fill="#A5ABB6" stroke="none" d="M 25 0.5 L 29.94266419979313 0.5 L 29.94266419979313 -0.5 L 25 -0.5 Z M 74.94266419979313 0.5 L 79.88532839958626 0.5 L 79.88532839958626 3.5 L 86.88532839958626 0 L 79.88532839958626 -3.5 L 79.88532839958626 -0.5 L 74.94266419979313 -0.5 Z"/><text text-anchor="middle" pointer-events="none" font-size="8px" fill="#000000" x="52.44266419979313" y="3" font-family="sans-serif">ACTED_IN</text></g><g class="relationship" transform="translate(0.9345804669564931 185.9463325330891) rotate(319.0256348727378)"><path class="outline" fill="#A5ABB6" stroke="none" d="M 25 0.5 L 28.75478561339696 0.5 L 28.75478561339696 -0.5 L 25 -0.5 Z M 73.75478561339696 0.5 L 77.50957122679392 0.5 L 77.50957122679392 3.5 L 84.50957122679392 0 L 77.50957122679392 -3.5 L 77.50957122679392 -0.5 L 73.75478561339696 -0.5 Z"/><text text-anchor="middle" pointer-events="none" font-size="8px" fill="#000000" x="51.25478561339696" y="3" font-family="sans-serif">ACTED_IN</text></g></g><g class="layer nodes"><g class="node" transform="translate(146.75124617432837,206.536708861223)"><circle class="outline" cx="0" cy="0" r="25" fill="#F79767" stroke="#f36924" stroke-width="2px"/><text text-anchor="middle" pointer-events="none" font-family="sans-serif" dy="1.5625" font-size="25" fill="#FFFFFF"/><text text-anchor="middle" pointer-events="none" font-family="sans-serif" dy="1.5625" font-size="25" fill="#FFFFFF"/><text text-anchor="middle" pointer-events="none" x="0" y="0" font-size="10px" fill="#FFFFFF" font-family="sans-serif"> Emil</text><text text-anchor="middle" pointer-events="none" x="0" y="10" font-size="10px" fill="#FFFFFF" font-family="sans-serif"> Eifrem</text></g><g class="node" transform="translate(83.61463899181373,114.1385745079117)"><circle class="outline" cx="0" cy="0" r="25" fill="#57C7E3" stroke="#23b3d7" stroke-width="2px"/><text text-anchor="middle" pointer-events="none" font-family="sans-serif" dy="1.5625" font-size="25" fill="#2A2C34"/><text text-anchor="middle" pointer-events="none" font-family="sans-serif" dy="1.5625" font-size="25" fill="#2A2C34"/><text text-anchor="middle" pointer-events="none" x="0" y="0" font-size="10px" fill="#2A2C34" font-family="sans-serif"> The</text><text text-anchor="middle" pointer-events="none" x="0" y="10" font-size="10px" fill="#2A2C34" font-family="sans-serif"> Matrix</text></g><g class="node" transform="translate(193.32396400940266,92.63813840333151)"><circle class="outline" cx="0" cy="0" r="25" fill="#F79767" stroke="#f36924" stroke-width="2px"/><text text-anchor="middle" pointer-events="none" font-family="sans-serif" dy="1.5625" font-size="25" fill="#FFFFFF"/><text text-anchor="middle" pointer-events="none" font-family="sans-serif" dy="1.5625" font-size="25" fill="#FFFFFF"/><text text-anchor="middle" pointer-events="none" x="0" y="0" font-size="10px" fill="#FFFFFF" font-family="sans-serif"> Hugo</text><text text-anchor="middle" pointer-events="none" x="0" y="10" font-size="10px" fill="#FFFFFF" font-family="sans-serif"> Weaving</text></g><g class="node" transform="translate(120.45451510389744,8.598724368884112)"><circle class="outline" cx="0" cy="0" r="25" fill="#F79767" stroke="#f36924" stroke-width="2px"/><text text-anchor="middle" pointer-events="none" font-family="sans-serif" dy="1.5625" font-size="25" fill="#FFFFFF"/><text text-anchor="middle" pointer-events="none" x="0" y="5" font-size="10px" fill="#FFFFFF" font-family="sans-serif"> Laurence</text></g><g class="node" transform="translate(1.072601575689248,38.606205484569344)"><circle class="outline" cx="0" cy="0" r="25" fill="#F79767" stroke="#f36924" stroke-width="2px"/><text text-anchor="middle" pointer-events="none" font-family="sans-serif" dy="1.5625" font-size="25" fill="#FFFFFF"/><text text-anchor="middle" pointer-events="none" x="0" y="5" font-size="10px" fill="#FFFFFF" font-family="sans-serif"> Carrie-A…</text></g><g class="node" transform="translate(0.9345804669564931,185.9463325330891)"><circle class="outline" cx="0" cy="0" r="25" fill="#F79767" stroke="#f36924" stroke-width="2px"/><text text-anchor="middle" pointer-events="none" font-family="sans-serif" dy="1.5625" font-size="25" fill="#FFFFFF"/><text text-anchor="middle" pointer-events="none" font-family="sans-serif" dy="1.5625" font-size="25" fill="#FFFFFF"/><text text-anchor="middle" pointer-events="none" x="0" y="0" font-size="10px" fill="#FFFFFF" font-family="sans-serif"> Keanu</text><text text-anchor="middle" pointer-events="none" x="0" y="10" font-size="10px" fill="#FFFFFF" font-family="sans-serif"> Reeves</text></g></g></svg>